<svg xmlns="http://www.w3.org/2000/svg" xmlns:xlink="http://www.w3.org/1999/xlink" width="119.457" height="119.455" viewBox="0 0 119.457 119.455">
  <defs>
    <clipPath id="clip-path">
      <path id="Path_659" data-name="Path 659" d="M257.954,188.526A59.728,59.728,0,1,0,317.683,128.8a59.729,59.729,0,0,0-59.729,59.727" fill="none"/>
    </clipPath>
    <clipPath id="clip-path-2">
      <rect id="Rectangle_996" data-name="Rectangle 996" width="22.874" height="13.374" transform="translate(306.905 206.331)" fill="none"/>
    </clipPath>
    <clipPath id="clip-path-3">
      <rect id="Rectangle_997" data-name="Rectangle 997" width="119.456" height="119.455" transform="translate(257.955 128.799)" fill="none"/>
    </clipPath>
  </defs>
  <g id="Group_2249" data-name="Group 2249" transform="translate(-429.954 -298.07)">
    <path id="Path_336" data-name="Path 336" d="M377.411,188.527A59.728,59.728,0,1,1,317.683,128.8a59.727,59.727,0,0,1,59.728,59.728" transform="translate(172 169.271)" fill="#bababa"/>
    <path id="Path_337" data-name="Path 337" d="M329.119,203.238c-1.12,2.188-6.619,12.928-.808,20.729,4.868,6.536,15.505,7.879,22.417,2.239,7.418-6.054,6.73-17.041,3.165-23.542-2.4-4.386-7.919-10.017-14.314-9.044-5.918.9-9.074,6.91-10.46,9.618" transform="translate(172 169.271)" fill="#3c3c3c"/>
    <path id="Path_338" data-name="Path 338" d="M318.772,143.346c3.426-3.318,6.418-4.2,8.641-4.277,10.34-.379,20.32,15.868,21.623,29.743,1.885,20.061-13.634,43.039-29.457,42.816-11.172-.157-19.9-11.76-23.758-16.893-3.627-4.822-8.385-11.168-8.956-20.148-1.127-17.749,14.724-36.3,25.819-34.538a11.478,11.478,0,0,1,6.088,3.3" transform="translate(172 169.271)" fill="#3c3c3c"/>
    <g id="Group_1387" data-name="Group 1387" transform="translate(172 169.271)">
      <g id="Group_1386" data-name="Group 1386" clip-path="url(#clip-path)">
        <rect id="Rectangle_995" data-name="Rectangle 995" width="22.874" height="15.412" transform="translate(306.905 206.331)" fill="#feffff"/>
        <g id="Group_1385" data-name="Group 1385" style="mix-blend-mode: multiply;isolation: isolate">
          <g id="Group_1384" data-name="Group 1384">
            <g id="Group_1383" data-name="Group 1383" clip-path="url(#clip-path-2)">
              <path id="Path_650" data-name="Path 650" d="M312.454,217.478a30.77,30.77,0,0,0,10.938,2.226,35.441,35.441,0,0,0,6.387-.619V206.331H306.906V214.3a19.122,19.122,0,0,0,5.548,3.176" fill="#e8e8e8"/>
            </g>
          </g>
        </g>
        <path id="Path_651" data-name="Path 651" d="M343.1,177.334c.077-.568,1.04-1.491,1.461-1.8.939-.695,1.886.019,2.16.923a11.808,11.808,0,0,1,.327,2.559,11.277,11.277,0,0,1-1.088,5.9,7.924,7.924,0,0,1-2.722,3.008.971.971,0,0,1-1.474-.795s1.336-9.787,1.336-9.793" fill="#feffff"/>
        <path id="Path_652" data-name="Path 652" d="M342.906,178.563c.055-.406.744-1.066,1.045-1.29.673-.5,1.35.015,1.547.661a8.462,8.462,0,0,1,.234,1.831,8.072,8.072,0,0,1-.78,4.223,5.653,5.653,0,0,1-1.947,2.152.7.7,0,0,1-1.055-.569s.955-7,.956-7.008" fill="#ddd"/>
        <path id="Path_653" data-name="Path 653" d="M293,177.334c-.078-.568-1.041-1.491-1.462-1.8-.938-.695-1.884.019-2.159.923a11.686,11.686,0,0,0-.328,2.559,11.287,11.287,0,0,0,1.088,5.9,7.916,7.916,0,0,0,2.722,3.008.971.971,0,0,0,1.474-.795S293,177.34,293,177.334" fill="#feffff"/>
        <path id="Path_654" data-name="Path 654" d="M293.2,178.563c-.055-.406-.743-1.066-1.045-1.29a.993.993,0,0,0-1.546.661,8.593,8.593,0,0,0-.236,1.831,8.083,8.083,0,0,0,.781,4.223,5.661,5.661,0,0,0,1.947,2.152.7.7,0,0,0,1.056-.569s-.955-7-.957-7.008" fill="#ddd"/>
        <path id="Path_655" data-name="Path 655" d="M343.852,179.176c0,6.457-1.113,12.987-4.16,18.575a37.01,37.01,0,0,1-10.943,11.925c-3.477,2.534-7.208,5.488-11.609,5.128-4.589-.378-8.164-4.288-11.516-7.34a39.917,39.917,0,0,1-10.729-15.9,36.756,36.756,0,0,1-2.063-12.391c0-20.874,11.421-34,25.51-34s25.51,13.129,25.51,34" fill="#feffff"/>
        <path id="Path_656" data-name="Path 656" d="M353.144,228.711l-24.836-7.454H308.379l-24.837,7.454s-11.51,4.894-12.788,20.387h95.179c-1.279-15.493-12.789-20.387-12.789-20.387" fill="#feffff"/>
        <path id="Path_657" data-name="Path 657" d="M353.144,228.711l-13.735-4.122L318.342,245.64l-21.128-21.032-13.672,4.1s-11.51,4.894-12.788,20.387h95.179c-1.279-15.493-12.789-20.387-12.789-20.387" fill="#ececec"/>
        <path id="Path_658" data-name="Path 658" d="M301.393,223.212s14.649,16.828,33.332,0l12.459,3.74-29.477,20.3-22-22.182Z" fill="#ececec"/>
      </g>
    </g>
    <path id="Path_660" data-name="Path 660" d="M321.3,156.134a26.359,26.359,0,0,1-2.664-4.738,52.2,52.2,0,0,1-5.8,8.988c-7.742,9.641-13.537,9.6-18.124,16.4-6.216,9.2-3.666,21.253-3.186,23.314,3.5,15.027,17.465,22.668,16.923,23.37-.491.634-12.853-4.363-19.587-16.833-10.454-19.36.757-41.948,2.977-46.411,2.987-6,6.972-13.742,14.99-15.907a18.839,18.839,0,0,1,11.648.872,14.989,14.989,0,0,1,6.737-1.745c8.915-.071,15.039,8.586,17.132,11.55,6.069,8.6,6.71,17.777,7.1,24.622,1.278,22.258-7.316,40.595-8.357,40.31-.641-.176,2.141-7.259,2.089-19.61-.044-10.542-.172-27.951-9.819-34.645-3.119-2.165-7.917-3.682-12.065-9.534" transform="translate(172 169.271)" fill="#3c3c3c"/>
    <g id="Group_1390" data-name="Group 1390" transform="translate(172 169.271)" style="mix-blend-mode: color;isolation: isolate">
      <g id="Group_1389" data-name="Group 1389">
        <g id="Group_1388" data-name="Group 1388" clip-path="url(#clip-path-3)">
          <path id="Path_661" data-name="Path 661" d="M377.411,188.527A59.728,59.728,0,1,1,317.683,128.8a59.727,59.727,0,0,1,59.728,59.728" fill="#7179ba"/>
        </g>
      </g>
    </g>
  </g>
</svg>
